# xmcd
#
# Track frame offsets: 
#        150
#        20010
#        39840
#        73160
#        91481
#        106261
#        119469
#        138891
#        158946
#        181422
#        192528
#        210466
#        233614
#        249679
#        263322
#        276917
#        296178
#        312419
#        325380
#        341376
#
# Disc length: 4775 seconds
#
# Revision: 1
# Processed by: cddbd v1.5.2PL0 Copyright (c) Steve Scherf et al.
# Submitted via: ExactAudioCopy v0.99pb3
#
DISCID=2912a514
DTITLE=Various Artist - Latina Party [CD 3)
DYEAR=2006
DGENRE=Latin
TTITLE0=Piensa En Mi (Luz Casal)
TTITLE1=Hasta Siempre (Soledad Bravo)
TTITLE2=Sodade (Live) (Cesaria Evora)
TTITLE3=La Flaca (Jarabe De Palo)
TTITLE4=Por Que Te Vas (Jeanette)
TTITLE5=Dos Gardenias (Antonio Machin)
TTITLE6=Gracias A La Vida (Omara Portuondo)
TTITLE7=Ambar (Maria Bethania)
TTITLE8=Hasta Llegar (Les Négresses Vertes)
TTITLE9=Samba De Verao (Marcos Valle)
TTITLE10=Oh Amores (Monica Molina)
TTITLE11=The Girl From Ipanema (Nova Bossa)
TTITLE12=Aguas De Março (Familia Jobim)
TTITLE13=As Cartas (Chico Buarque and Ana De Hollanda)
TTITLE14=Y No Espera Mas (Felix Baloy)
TTITLE15=Cuando Ya No Me Quieras (Pio Leiva)
TTITLE16=Princesa Negra De Angola (Bebeto)
TTITLE17=Lambada De Serpente (Djavan)
TTITLE18=La Edad Del Cielo (Jorge Drexler)
TTITLE19=El Pescador (Toto La Momposina)
EXTD=YEAR: 2006
EXTT0=
EXTT1=
EXTT2=
EXTT3=
EXTT4=
EXTT5=
EXTT6=
EXTT7=
EXTT8=
EXTT9=
EXTT10=
EXTT11=
EXTT12=
EXTT13=
EXTT14=
EXTT15=
EXTT16=
EXTT17=
EXTT18=
EXTT19=
PLAYORDER=
